<svg version="1.1" id="Layer_1" xmlns="http://www.w3.org/2000/svg" x="0" y="0" viewBox="0 0 273 278.5" xml:space="preserve"><style>.st0{fill:#e31213}</style><path class="st0" d="M144.6 86.3V4.7L136.5 0l-8.1 4.7v81.6l8.1 4.7z"/><path class="st0" d="M177 23.4V105l-40.5 23.4L96.1 105V23.3l16.1-9.3v81.6l24.3 14.1 24.3-14.1V14zM78.8 190.9l-8.1-4.6L0 227.1v9.3l8.1 4.7 70.7-40.8z"/><path class="st0" d="M111.2 172.2V219l-70.7 40.8-16.2-9.4L95 209.6v-28l-24.3-14L0 208.4v-18.7l70.7-40.8zM202.3 186.3l-8.1 4.6v9.4l70.7 40.8 8.1-4.7v-9.3z"/><path class="st0" d="M145.7 184.4v-21.5l56.6-32.7L273 171v-18.7l-63.7-36.7V42l-16.1-9.3v81.6l-38.1 22-18.6 10.7-56.6-32.7V32.7L63.7 42v73.6L0 152.3V171l70.7-40.8 37.9 21.9 18.7 10.8h.1v65.4l-70.7 40.8 16.1 9.4 63.7-36.8 63.7 36.8 16.2-9.4-70.7-40.8z"/><path class="st0" d="M178 181.6v28l70.7 40.8-16.2 9.4-70.6-40.8v-46.8l40.4-23.3 70.7 40.8v18.7l-70.7-40.8z"/></svg>