<svg id="e8n9n1xwc6r1" xmlns="http://www.w3.org/2000/svg" xmlns:xlink="http://www.w3.org/1999/xlink" viewBox="0 0 307 313.200000" shape-rendering="geometricPrecision" text-rendering="geometricPrecision"><style><![CDATA[#e8n9n1xwc6r2_to {animation: e8n9n1xwc6r2_to__to 3000ms linear infinite normal forwards}@keyframes e8n9n1xwc6r2_to__to { 0% {transform: translate(153.550000px,156.550000px)} 33.333333% {transform: translate(153.550000px,156.550000px)} 50% {transform: translate(169.344037px,184.037468px)} 100% {transform: translate(169.344037px,184.037468px)} }#e8n9n1xwc6r2_tr {animation: e8n9n1xwc6r2_tr__tr 3000ms linear infinite normal forwards}@keyframes e8n9n1xwc6r2_tr__tr { 0% {transform: rotate(0deg)} 33.333333% {transform: rotate(0deg)} 50% {transform: rotate(120deg)} 100% {transform: rotate(120deg)} }#e8n9n1xwc6r3_to {animation: e8n9n1xwc6r3_to__to 3000ms linear infinite normal forwards}@keyframes e8n9n1xwc6r3_to__to { 0% {transform: translate(153.500000px,62.799999px)} 16.666667% {transform: translate(153.500000px,45.499999px)} 33.333333% {transform: translate(153.500000px,62.799999px)} 100% {transform: translate(153.500000px,62.799999px)} }#e8n9n1xwc6r5_to {animation: e8n9n1xwc6r5_to__to 3000ms linear infinite normal forwards}@keyframes e8n9n1xwc6r5_to__to { 0% {transform: translate(153.549999px,88.499996px)} 16.666667% {transform: translate(153.499999px,68.395457px)} 23.333333% {transform: translate(153.549999px,88.499996px)} 100% {transform: translate(153.549999px,88.499996px)} }]]></style><g id="e8n9n1xwc6r2_to" transform="translate(153.550000,156.550000)"><g id="e8n9n1xwc6r2_tr" transform="rotate(0)"><g id="e8n9n1xwc6r2" transform="translate(-153.500000,-156.549999)"><g id="e8n9n1xwc6r3_to" transform="translate(153.500000,62.799999)"><path id="e8n9n1xwc6r3" d="M161.600000,103.600000L161.600000,22L153.500000,17.300000L145.400000,22L145.400000,103.600000L153.500000,108.300000L161.600000,103.600000Z" transform="translate(-153.500000,-62.799999)" fill="rgb(227,18,19)" stroke="none" stroke-width="1"/></g><polygon id="e8n9n1xwc6r4" points="17,244.400000 17,253.700000 25.100000,258.400000 95.800000,217.600000 95.800000,208.200000 87.700000,203.600000" fill="rgb(227,18,19)" stroke="none" stroke-width="1"/><g id="e8n9n1xwc6r5_to" transform="translate(153.549999,88.499996)"><polygon id="e8n9n1xwc6r5" points="177.800000,31.300000 177.800000,112.900000 153.500000,127 129.200000,112.900000 129.200000,31.300000 113.100000,40.600000 113.100000,122.300000 153.500000,145.700000 194,122.300000 194,40.700000" transform="translate(-153.549999,-88.499996)" fill="rgb(227,18,19)" stroke="none" stroke-width="1"/></g><polygon id="e8n9n1xwc6r6" points="17,207 17,225.700000 87.700000,184.900000 112,198.900000 112,226.900000 41.300000,267.700000 57.500000,277.100000 128.200000,236.300000 128.200000,189.500000 87.700000,166.200000" fill="rgb(227,18,19)" stroke="none" stroke-width="1"/><polygon id="e8n9n1xwc6r7" points="219.300000,203.600000 211.200000,208.200000 211.200000,217.600000 281.900000,258.400000 290,253.700000 290,244.400000" fill="rgb(227,18,19)" stroke="none" stroke-width="1"/><path id="e8n9n1xwc6r8" d="M162.700000,201.700000L162.700000,180.200000L219.300000,147.500000L290,188.300000L290,169.600000L226.300000,132.900000L226.300000,59.300000L210.200000,50L210.200000,131.600000L172.100000,153.600000L153.500000,164.300000L96.900000,131.600000L96.900000,50L80.700000,59.300000L80.700000,132.900000L17,169.600000L17,188.300000L87.700000,147.500000L125.600000,169.400000L144.300000,180.200000L144.400000,180.200000L144.400000,245.600000L73.700000,286.400000L89.800000,295.800000L153.500000,259L217.200000,295.800000L233.400000,286.400000L162.700000,245.600000L162.700000,201.700000L162.700000,201.700000Z" fill="rgb(227,18,19)" stroke="none" stroke-width="1"/><path id="e8n9n1xwc6r9" d="M195,198.900000L195,226.900000L265.700000,267.700000L249.500000,277.100000L178.900000,236.300000L178.900000,189.500000L219.300000,166.200000L290,207L290,225.700000L219.300000,184.900000L195,198.900000Z" fill="rgb(227,18,19)" stroke="none" stroke-width="1"/></g></g></g></svg>