<svg id="etkedjqv4hf81" xmlns="http://www.w3.org/2000/svg" xmlns:xlink="http://www.w3.org/1999/xlink" viewBox="0 0 307 313.200000" shape-rendering="geometricPrecision" text-rendering="geometricPrecision"><style><![CDATA[#etkedjqv4hf82_to {animation: etkedjqv4hf82_to__to 2000ms linear infinite normal forwards}@keyframes etkedjqv4hf82_to__to { 0% {transform: translate(153.500000px,62.799999px)} 50% {transform: translate(153.500000px,45.499999px)} 100% {transform: translate(153.500000px,62.799999px)} }#etkedjqv4hf83_to {animation: etkedjqv4hf83_to__to 2000ms linear infinite normal forwards}@keyframes etkedjqv4hf83_to__to { 0% {transform: translate(56.400002px,231px)} 50% {transform: translate(39.400002px,241.770289px)} 100% {transform: translate(56.400002px,231px)} }#etkedjqv4hf84_to {animation: etkedjqv4hf84_to__to 2000ms linear infinite normal forwards}@keyframes etkedjqv4hf84_to__to { 0% {transform: translate(153.549999px,88.499996px)} 25% {transform: translate(153.549999px,71.200000px)} 50% {transform: translate(153.549999px,88.499996px)} 100% {transform: translate(153.549999px,88.499996px)} }#etkedjqv4hf85_to {animation: etkedjqv4hf85_to__to 2000ms linear infinite normal forwards}@keyframes etkedjqv4hf85_to__to { 0% {transform: translate(72.599998px,221.650002px)} 25% {transform: translate(55.599998px,231.000002px)} 50% {transform: translate(72.599998px,221.650002px)} 100% {transform: translate(72.599998px,221.650002px)} }#etkedjqv4hf86_to {animation: etkedjqv4hf86_to__to 2000ms linear infinite normal forwards}@keyframes etkedjqv4hf86_to__to { 0% {transform: translate(250.599998px,231px)} 50% {transform: translate(267.599998px,241.770288px)} 100% {transform: translate(250.599998px,231px)} }#etkedjqv4hf88_to {animation: etkedjqv4hf88_to__to 2000ms linear infinite normal forwards}@keyframes etkedjqv4hf88_to__to { 0% {transform: translate(234.450012px,221.649971px)} 25% {transform: translate(251.450012px,230.999971px)} 50% {transform: translate(234.450012px,221.649971px)} 100% {transform: translate(234.450012px,221.649971px)} }]]></style><g id="etkedjqv4hf82_to" transform="translate(153.500000,62.799999)"><path id="etkedjqv4hf82" d="M161.600000,103.600000L161.600000,22L153.500000,17.300000L145.400000,22L145.400000,103.600000L153.500000,108.300000L161.600000,103.600000Z" transform="translate(-153.500000,-62.799999)" fill="rgb(227,18,19)" stroke="none" stroke-width="1"/></g><g id="etkedjqv4hf83_to" transform="translate(56.400002,231)"><polygon id="etkedjqv4hf83" points="17,244.400000 17,253.700000 25.100000,258.400000 95.800000,217.600000 95.800000,208.200000 87.700000,203.600000" transform="translate(-56.400002,-231)" fill="rgb(227,18,19)" stroke="none" stroke-width="1"/></g><g id="etkedjqv4hf84_to" transform="translate(153.549999,88.499996)"><polygon id="etkedjqv4hf84" points="177.800000,31.300000 177.800000,112.900000 153.500000,127 129.200000,112.900000 129.200000,31.300000 113.100000,40.600000 113.100000,122.300000 153.500000,145.700000 194,122.300000 194,40.700000" transform="translate(-153.549999,-88.499996)" fill="rgb(227,18,19)" stroke="none" stroke-width="1"/></g><g id="etkedjqv4hf85_to" transform="translate(72.599998,221.650002)"><polygon id="etkedjqv4hf85" points="17,207 17,225.700000 87.700000,184.900000 112,198.900000 112,226.900000 41.300000,267.700000 57.500000,277.100000 128.200000,236.300000 128.200000,189.500000 87.700000,166.200000" transform="translate(-72.599998,-221.650002)" fill="rgb(227,18,19)" stroke="none" stroke-width="1"/></g><g id="etkedjqv4hf86_to" transform="translate(250.599998,231)"><polygon id="etkedjqv4hf86" points="219.300000,203.600000 211.200000,208.200000 211.200000,217.600000 281.900000,258.400000 290,253.700000 290,244.400000" transform="translate(-250.599998,-231)" fill="rgb(227,18,19)" stroke="none" stroke-width="1"/></g><path id="etkedjqv4hf87" d="M162.700000,201.700000L162.700000,180.200000L219.300000,147.500000L290,188.300000L290,169.600000L226.300000,132.900000L226.300000,59.300000L210.200000,50L210.200000,131.600000L172.100000,153.600000L153.500000,164.300000L96.900000,131.600000L96.900000,50L80.700000,59.300000L80.700000,132.900000L17,169.600000L17,188.300000L87.700000,147.500000L125.600000,169.400000L144.300000,180.200000L144.400000,180.200000L144.400000,245.600000L73.700000,286.400000L89.800000,295.800000L153.500000,259L217.200000,295.800000L233.400000,286.400000L162.700000,245.600000L162.700000,201.700000L162.700000,201.700000Z" fill="rgb(227,18,19)" stroke="none" stroke-width="1"/><g id="etkedjqv4hf88_to" transform="translate(234.450012,221.649971)"><path id="etkedjqv4hf88" d="M195,198.900000L195,226.900000L265.700000,267.700000L249.500000,277.100000L178.900000,236.300000L178.900000,189.500000L219.300000,166.200000L290,207L290,225.700000L219.300000,184.900000L195,198.900000Z" transform="translate(-234.450012,-221.649971)" fill="rgb(227,18,19)" stroke="none" stroke-width="1"/></g></svg>