<?xml version="1.0" encoding="utf-8"?>
<!-- Generator: Adobe Illustrator 24.3.0, SVG Export Plug-In . SVG Version: 6.00 Build 0)  -->
<svg version="1.1" id="Layer_1" xmlns="http://www.w3.org/2000/svg" xmlns:xlink="http://www.w3.org/1999/xlink" x="0px" y="0px"
	 viewBox="0 0 386.3 387.9" style="enable-background:new 0 0 386.3 387.9;" xml:space="preserve">
<style type="text/css">
	.st0{fill:#E3191E;}
	.st1{fill:#A5201E;}
</style>
<g>
</g>
<g>
	<g>
		<polygon class="st0" points="98,291.8 111.5,306 125.1,291.8 125.1,96.1 111.5,81.9 98,96.1 		"/>
		<polygon class="st0" points="152.1,291.8 165.6,306 179.1,291.8 179.1,96.1 165.6,81.9 152.1,96.1 		"/>
		<polygon class="st0" points="206.2,291.8 219.7,306 233.2,291.8 233.2,96.1 219.7,81.9 206.2,96.1 		"/>
		<polygon class="st0" points="260.2,291.8 273.7,306 287.3,291.8 287.3,96.1 273.7,81.9 260.2,96.1 		"/>
	</g>
	<polygon class="st1" points="54.9,255.9 49,274.6 68,279.5 330.4,132 336.2,113.3 317.2,108.4 	"/>
</g>
</svg>
