<?xml version="1.0" encoding="utf-8"?>
<!-- Generator: Adobe Illustrator 24.3.0, SVG Export Plug-In . SVG Version: 6.00 Build 0)  -->
<svg version="1.1" id="Layer_1" xmlns="http://www.w3.org/2000/svg" xmlns:xlink="http://www.w3.org/1999/xlink" x="0px" y="0px"
	 viewBox="0 0 386.3 387.9" style="enable-background:new 0 0 386.3 387.9;" xml:space="preserve">
<style type="text/css">
	.st0{fill:#E31418;}
	.st1{fill:#A51E1D;}
</style>
<g>
	<g>
		<polygon class="st0" points="271.3,205.3 116.4,205.3 79.7,97.9 308.1,97.9 		"/>
		<g>
			<polygon class="st0" points="271.4,205.3 271.4,322.7 255.6,340.7 131,340.7 116.4,323.9 116.4,205.3 			"/>
			<polygon class="st1" points="271.4,291.9 271.4,322.7 255.6,340.7 232.2,340.7 			"/>
			<polygon class="st1" points="155.5,340.7 131,340.7 116.4,323.9 116.4,291.9 			"/>
		</g>
	</g>
	<polygon class="st1" points="214.2,303.4 203.7,303.4 194.3,296.9 193.3,296.3 192.3,296.9 183,303.4 172.5,303.4 149.3,284.3 
		166.8,308 187.8,308 193.3,301.5 198.9,308 219.9,308 237.4,284.3 	"/>
	<polygon class="st1" points="216.5,274.7 204.8,274.7 194.4,267.5 193.3,266.7 192.2,267.5 181.8,274.7 170.1,274.7 144.3,253.4 
		163.8,279.8 187.2,279.8 193.3,272.2 199.5,279.8 222.9,279.8 242.3,253.4 	"/>
	<polygon class="st1" points="219.8,241.2 206.5,241.2 194.6,232.9 193.3,232 192.1,232.9 180.2,241.2 166.8,241.2 137.3,216.8 
		159.6,247 186.3,247 193.3,237.9 200.4,247 227.1,247 249.3,216.8 	"/>
	<polygon class="st1" points="193.3,319.1 182.8,328.6 193.3,323.8 203.8,328.6 	"/>
	<polygon class="st0" points="338.7,52.7 338.7,136.8 280.4,176.2 280.4,68.7 286.8,52.7 	"/>
	<polygon class="st0" points="79.6,97.9 49,137.3 49,247.2 78.6,259.8 107.3,225.3 107.3,97.9 	"/>
	<polygon class="st1" points="193.8,175.2 213.7,200 261.6,200 296.3,151.6 268.8,209.6 193.8,211.1 	"/>
	<polygon class="st1" points="193.8,175.2 173.9,200 126,200 91.3,151.6 118.8,209.6 193.8,211.1 	"/>
	<polygon class="st0" points="193.8,176.2 180.5,211.1 193.8,211.1 207.1,211.1 	"/>
	<g>
		<path class="st1" d="M145.2,189.2h-13.4c-1.2,0-2.1-0.9-2.1-2.1v-1.8c0-1.2,0.9-2.1,2.1-2.1h13.4c1.2,0,2.1,0.9,2.1,2.1v1.8
			C147.3,188.3,146.4,189.2,145.2,189.2z"/>
		<path class="st1" d="M241.4,189.2h13.4c1.2,0,2.1-0.9,2.1-2.1v-1.8c0-1.2-0.9-2.1-2.1-2.1h-13.4c-1.2,0-2.1,0.9-2.1,2.1v1.8
			C239.3,188.3,240.3,189.2,241.4,189.2z"/>
	</g>
</g>
<polygon class="st0" points="271.4,245.4 271.4,260.4 271.4,275.4 296.2,267.1 296.2,260.4 296.2,253.7 "/>
<polygon class="st1" points="280.4,122 319.5,149.7 280.4,176.2 "/>
<g>
	<rect x="282.8" y="208.7" class="st1" width="10" height="30.4"/>
	<polygon class="st1" points="287.8,245.4 300.3,232.9 275.3,232.9 	"/>
</g>
<g>
	<rect x="282.8" y="281.6" class="st1" width="10" height="30.4"/>
	<polygon class="st1" points="287.8,275.4 300.3,287.9 275.3,287.9 	"/>
</g>
<polygon class="st1" points="296.2,267.1 271.4,264.6 251.8,278 271.4,275.4 "/>
<polygon class="st1" points="107.3,97.9 152.5,118.4 136,97.9 "/>
<polygon class="st0" points="136,97.9 155.5,75.9 194,75.9 194,97.9 "/>
<polygon class="st1" points="280.7,97.9 235.6,118.4 252.1,97.9 "/>
<polygon class="st0" points="252.1,97.9 232.5,75.9 194,75.9 194,97.9 "/>
</svg>
