<?xml version="1.0" encoding="utf-8"?>
<!-- Generator: Adobe Illustrator 24.3.0, SVG Export Plug-In . SVG Version: 6.00 Build 0)  -->
<svg version="1.1" id="Layer_1" xmlns="http://www.w3.org/2000/svg" xmlns:xlink="http://www.w3.org/1999/xlink" x="0px" y="0px"
	 viewBox="0 0 386.3 387.9" style="enable-background:new 0 0 386.3 387.9;" xml:space="preserve">
<style type="text/css">
	.st0{fill:#E31418;}
	.st1{fill:#A51E1D;}
	.st2{fill:#FFFFFF;}
</style>
<g>
	<path class="st0" d="M302.7,232.1c0,4.2-0.2,8.4-0.7,12.4c-4.2,36.4-26.3,67.4-57.4,83.7c-15.1,8-32.3,12.5-50.6,12.5
		s-35.5-4.5-50.6-12.5c-31.1-16.4-53.2-47.3-57.4-83.7l0,0c-0.5-4.1-0.7-8.2-0.7-12.4c0-1.8,0-3.5,0.1-5.3c0.4-9.2,2-18.2,4.7-26.7
		l0,0c5.7-18.5,16.2-34.9,30.1-47.8c0.3-0.3,0.6-0.5,0.9-0.8c19.3-17.5,44.8-28.1,72.9-28.1c21.9,0,42.3,6.5,59.3,17.6
		c4.8,3.1,9.3,6.7,13.6,10.5c0.3,0.3,0.6,0.5,0.9,0.8c13.9,12.8,24.4,29.2,30.1,47.8c2.6,8.5,4.2,17.5,4.7,26.7
		C302.6,228.6,302.7,230.3,302.7,232.1z"/>
	<path class="st0" d="M247.4,52.6H140.6c-21.9,0-38.2,20.4-33.2,41.8l13.8,59.7l72.9,43.1l72.9-43.1l13.8-59.7
		C285.6,73,269.4,52.6,247.4,52.6z M235,130.7l-41,24.2l-41-24.2l-9.6-41.8h101.2L235,130.7z"/>
	<path class="st1" d="M120,230.1h41.7c6,0,10.8,4.8,10.8,10.8v23.6h-0.1c-16.9,0-32.8-8-42.9-21.5L120,230.1z"/>
	<path class="st1" d="M268,230.1h-41.6c-6,0-10.8,4.8-10.8,10.8v23.6l0,0c16.9,0,32.8-8,42.9-21.6L268,230.1z"/>
	<polygon class="st1" points="210.9,306.5 175.1,306.5 183.8,271.9 202.2,271.9 	"/>
	<path class="st1" d="M143.4,293.8v34.5C112.3,311.9,90.2,281,86,244.6L143.4,293.8z"/>
	<path class="st1" d="M302,244.5c-4.2,36.4-26.3,67.4-57.4,83.7v-34.5L302,244.5z"/>
	<path class="st1" d="M297.9,200.1l-31-20.1v-28.4c0.3,0.3,0.6,0.5,0.9,0.8C281.7,165.2,292.2,181.6,297.9,200.1z"/>
	<path class="st1" d="M121.1,151.5V180l-31,20.1c5.7-18.5,16.2-34.9,30.1-47.8C120.5,152.1,120.8,151.8,121.1,151.5z"/>
	<path class="st1" d="M244.6,88.9l3.5-13.4H134.9c-5.7,0-9.9,5.4-8.4,10.9L140,138l13.1-7.4l-9.6-41.8L244.6,88.9L244.6,88.9z"/>
	<path class="st1" d="M280.7,94.3l-12.9,58c-0.3-0.3-0.6-0.5-0.9-0.8c-4.2-3.8-8.8-7.3-13.6-10.5L280.7,94.3z"/>
</g>
<polygon class="st2" points="86.1,271.2 122.6,303.5 122.6,335.9 82,278.6 "/>
<polygon class="st2" points="301.9,271.2 265.4,303.5 265.4,335.9 306,278.6 "/>
<polygon class="st2" points="210.8,366.7 210.8,346.2 193,335.9 175.2,346.2 175.2,366.7 193,377 "/>
<polygon class="st2" points="134.5,354.7 140.8,335.1 160.9,330.8 174.7,346.1 168.4,365.6 148.3,369.9 "/>
<polygon class="st2" points="251.5,354.7 245.2,335.1 225.1,330.8 211.3,346.1 217.6,365.6 237.7,369.9 "/>
</svg>
