<?xml version="1.0" encoding="utf-8"?>
<!-- Generator: Adobe Illustrator 24.3.0, SVG Export Plug-In . SVG Version: 6.00 Build 0)  -->
<svg version="1.1" id="Layer_1" xmlns="http://www.w3.org/2000/svg" xmlns:xlink="http://www.w3.org/1999/xlink" x="0px" y="0px"
	 viewBox="0 0 386.3 387.9" style="enable-background:new 0 0 386.3 387.9;" xml:space="preserve">
<style type="text/css">
	.st0{fill:#E31418;}
	.st1{fill:#A51E1D;}
</style>
<g>
	<polygon class="st0" points="279.1,257.1 259.8,282.1 271.5,304.7 271.1,328.7 141,327.9 141,301.1 109.1,240.7 74.9,214.6 
		74.2,214.2 48.3,162.2 73.9,111.4 177.7,59.2 242.7,86.2 253.1,115.9 288,132.3 294.1,144.4 283.8,149.6 304.6,165.3 280.4,177.5 
		285.2,190.7 307.6,193.2 313.1,204.2 305.1,208.2 323.1,243.2 	"/>
	<polygon class="st1" points="199.7,206.4 231,272.5 323.1,243.2 240.9,253.7 	"/>
	<polygon class="st1" points="129,275.3 137.7,258.6 109.1,240.7 	"/>
	<polyline class="st1" points="242.7,86.2 225.2,95 204.6,140.3 253.1,115.9 	"/>
	<path class="st1" d="M337.4,176.5c-1.9,5.9-8.3,9.1-14.2,7.1c-5.9-1.9-9.1-8.3-7.1-14.2L337.4,176.5z"/>
	<path class="st0" d="M337.4,176.5l-21.3-7c1.9-5.9,8.3-9.1,14.2-7.1C336.2,164.3,339.4,170.7,337.4,176.5z"/>
</g>
</svg>
