<?xml version="1.0" encoding="utf-8"?>
<!-- Generator: Adobe Illustrator 24.3.0, SVG Export Plug-In . SVG Version: 6.00 Build 0)  -->
<svg version="1.1" id="Layer_1" xmlns="http://www.w3.org/2000/svg" xmlns:xlink="http://www.w3.org/1999/xlink" x="0px" y="0px"
	 viewBox="0 0 386.3 387.9" style="enable-background:new 0 0 386.3 387.9;" xml:space="preserve">
<style type="text/css">
	.st0{fill:#E31418;}
	.st1{fill:#A51E1D;}
</style>
<g>
</g>
<g>
	<polygon class="st0" points="177.3,305.3 160.4,272.7 193.7,237.3 225.9,207.9 243.5,161.1 340.7,52.7 219.3,52.7 196,109.6 
		134.6,122.9 156.1,184.9 126.9,246.5 126.8,286 152.7,310.3 168.7,310.3 	"/>
	<polygon class="st1" points="219.3,52.7 209.4,132.8 134.6,122.9 196,109.6 	"/>
	<polygon class="st1" points="134.6,122.9 180.7,187.5 126.9,246.5 156.1,184.9 	"/>
	<polygon class="st1" points="160.4,272.7 168.7,310.3 177.3,305.3 	"/>
</g>
<polygon class="st1" points="183.7,151 193.2,177.6 215.5,173.6 199.6,167.8 "/>
<polygon class="st1" points="183.7,72 192.7,52.7 49,62.3 "/>
<polygon class="st1" points="104.7,116.2 164.4,96.8 49,106.5 "/>
<polygon class="st1" points="133.7,170.3 126.7,151 49,160.7 "/>
<polygon class="st1" points="123.7,219.5 132.7,200.2 49,209.8 "/>
<polygon class="st1" points="110.7,268.7 110.7,249.3 49,259 "/>
</svg>
