<?xml version="1.0" encoding="utf-8"?>
<!-- Generator: Adobe Illustrator 24.3.0, SVG Export Plug-In . SVG Version: 6.00 Build 0)  -->
<svg version="1.1" id="Layer_1" xmlns="http://www.w3.org/2000/svg" xmlns:xlink="http://www.w3.org/1999/xlink" x="0px" y="0px"
	 viewBox="0 0 386.3 387.9" style="enable-background:new 0 0 386.3 387.9;" xml:space="preserve">
<style type="text/css">
	.st0{fill:#E31418;}
	.st1{fill:#A51E1D;}
	.st2{fill:#FFFFFF;}
</style>
<g>
	<g>
		<path class="st0" d="M216.6,306.2H49V137.9C141.7,138.3,216.6,213.5,216.6,306.2z"/>
	</g>
	<g>
		<path class="st0" d="M335.4,278.2l-16.8,10.5l-28.2,17.6H69.2c0-4.5,0.2-9,0.7-13.4c3.1-31.8,17.4-60.4,38.7-81.8
			c6.6-6.6,14-12.6,21.9-17.7c8.8-5.7,18.3-10.4,28.3-14l0,0c0,0,0,0,0,0c8.7-3.1,17.9-5.3,27.3-6.5c5.8-0.8,11.6-1.1,17.6-1.1
			c3.1,0,6.1,0.1,9.2,0.3c15.1,1,29.5,4.5,42.8,10.1c21,8.8,39.2,22.7,53.2,40.2C321.8,238.3,331,257.4,335.4,278.2z"/>
	</g>
	<path class="st0" d="M218.8,81.7V99c0,21.5,17.4,38.9,38.9,38.9h0L338,81.7L218.8,81.7z"/>
	<polygon class="st0" points="338,276.6 299.6,271.6 242.4,220.7 290.4,81.7 338,81.7 	"/>
	<polygon class="st1" points="338,276.6 290.4,306.2 212.2,306.2 299.6,271.6 338,81.7 	"/>
	<polygon class="st1" points="255.8,182.1 263.2,245 184.7,269.8 245.6,238.1 	"/>
	<polygon class="st1" points="48.3,306.2 107,269.8 212.2,306.2 	"/>
	<polygon class="st1" points="158.9,179.3 116.5,238.9 139.2,165.2 	"/>
	<path class="st2" d="M213,172v134.2h-26.8V172.8c5.8-0.8,11.6-1.1,17.6-1.1C206.9,171.7,209.9,171.8,213,172z"/>
	<rect x="194.4" y="179.6" class="st1" width="18.6" height="4.9"/>
	<rect x="194.4" y="207" class="st1" width="18.6" height="4.9"/>
	<rect x="194.4" y="234.4" class="st1" width="18.6" height="4.9"/>
	<rect x="194.4" y="261.8" class="st1" width="18.6" height="4.9"/>
	<rect x="194.4" y="289.3" class="st1" width="18.6" height="4.9"/>
</g>
</svg>
