<?xml version="1.0" encoding="utf-8"?>
<!-- Generator: Adobe Illustrator 24.3.0, SVG Export Plug-In . SVG Version: 6.00 Build 0)  -->
<svg version="1.1" id="Layer_1" xmlns="http://www.w3.org/2000/svg" xmlns:xlink="http://www.w3.org/1999/xlink" x="0px" y="0px"
	 viewBox="0 0 386.3 387.9" style="enable-background:new 0 0 386.3 387.9;" xml:space="preserve">
<style type="text/css">
	.st0{fill:#A51E1D;}
	.st1{fill:#E31418;}
	.st2{fill:#FFFFFF;}
</style>
<g>
</g>
<g>
	<path class="st0" d="M194.1,288.9c0,0,13.2,11.3,29.5,4.2c18.8-8.2,14-25.5,14-25.5l-12.4-18h-39.8L194.1,288.9z"/>
	<path class="st0" d="M48.3,164.3v18.6c0,9.6,4.6,18.4,12,23.4l133.7,82.6v-43.3L48.3,164.3z"/>
	<path class="st0" d="M338,202.2V223c0,8.7-4.6,16.6-11.8,20.2l-102.6,49.9l3.1-46.6L338,202.2z"/>
	<g>
		<path class="st1" d="M227.9,101.5l104.2,90.4c9.4,8.2,7.3,18.5-4.9,24l-97.4,43.5c-12.1,5.4-30.4,4.1-42.1-3l-129.7-79
			c-13.4-8.1-12.9-20.6,1-26.8l123-54.9C195.9,89.5,217.2,92.2,227.9,101.5z"/>
		<path class="st2" d="M163.2,104.1c1,0.7,1.9,1.4,2.8,2.2c5.1,4.3,8.4,9,10,13.7c0.3,0.9,0.5,1.7,0.7,2.6c1,4.7,0.2,9.5-2.3,13.8
			c-0.4,0.8-1,1.6-1.5,2.3c-3,4-7.5,7.7-13.5,10.6c-0.5,0.3-1.1,0.5-1.6,0.8c-0.6,0.3-1.1,0.5-1.7,0.7c-6.5,2.6-13.7,4.3-21.3,5
			c-1.4,0.1-2.9,0.2-4.4,0.3c-8,0.3-16.3-0.4-24.1-2c-1.4-0.3-2.9-0.6-4.3-1c-7.7-2-14.9-4.9-21-8.8c-1.1-0.7-2.1-1.4-3.1-2.1
			L163.2,104.1z"/>
		<g>
			<path class="st0" d="M94,135l2.9,2.1l-16,7.2c-1.1-0.7-2.1-1.4-3.1-2.1L94,135z"/>
			<polygon class="st0" points="101.9,153.1 108.5,142.3 112.7,143.4 106.2,154.1 			"/>
			<path class="st0" d="M130.9,144.6l3.7,11.3c-1.4,0.1-2.9,0.2-4.4,0.3l-3.8-11.3L130.9,144.6z"/>
			<path class="st0" d="M146.8,140.3l12.6,9.1c-0.5,0.3-1.1,0.5-1.6,0.8c-0.6,0.3-1.1,0.5-1.7,0.7l-12.6-9.1L146.8,140.3z"/>
			<path class="st0" d="M174.4,136.4c-0.4,0.8-1,1.6-1.5,2.3l-18.4-4.7l1.4-2.4L174.4,136.4z"/>
			<path class="st0" d="M176,120c0.3,0.9,0.5,1.7,0.7,2.6l-19.8,1.1l-0.9-2.6L176,120z"/>
			<polygon class="st0" points="166,106.3 149.9,113.5 147,111.4 163.2,104.1 			"/>
		</g>
		<path class="st0" d="M124.9,177.1l13.2-5.9c10.4-4.6,26.2-3.1,35.2,3.5l60.9,44.1c9.1,6.6,8,15.6-2.4,20.3l0,0
			c-9,4-22.4,3.4-31.8-1.4l-74.1-38.2C113.6,193.2,113.1,182.4,124.9,177.1z"/>
		<path class="st0" d="M212.3,138.1l-13.2,5.9c-10.4,4.6-11.5,13.7-2.4,20.3l60.9,44.1c9.1,6.6,24.8,8.1,35.2,3.5l0,0
			c9-4,11.2-11.6,5.1-17.9l-47.6-50C242.3,135.6,224.1,132.8,212.3,138.1z"/>
		<polygon class="st0" points="128.5,119.6 138,135.8 112.5,126.8 		"/>
	</g>
</g>
</svg>
