<?xml version="1.0" encoding="utf-8"?>
<!-- Generator: Adobe Illustrator 24.3.0, SVG Export Plug-In . SVG Version: 6.00 Build 0)  -->
<svg version="1.1" id="Layer_1" xmlns="http://www.w3.org/2000/svg" xmlns:xlink="http://www.w3.org/1999/xlink" x="0px" y="0px"
	 viewBox="0 0 386.3 387.9" style="enable-background:new 0 0 386.3 387.9;" xml:space="preserve">
<style type="text/css">
	.st0{fill:#E31418;}
	.st1{fill:#A51E1D;}
</style>
<g>
</g>
<polygon class="st0" points="258.3,223 258.3,324.1 245.9,340.7 142.1,340.7 129.7,324.1 129.7,223 142.1,206.4 245.9,206.4 "/>
<polygon class="st0" points="258.3,108.8 258.3,189.7 245.9,206.4 142.1,206.4 129.7,189.7 129.7,108.8 142.1,92.2 245.9,92.2 "/>
<rect x="142.1" y="71.3" class="st1" width="103.8" height="20.9"/>
<rect x="183.9" y="62.4" class="st1" width="20.3" height="14.9"/>
<path class="st1" d="M182.9,60h22.3c1.8,0,3.2-1.4,3.2-3.2v-0.9c0-1.8-1.4-3.2-3.2-3.2h-22.3c-1.8,0-3.2,1.4-3.2,3.2v0.9
	C179.6,58.6,181.1,60,182.9,60z"/>
<polygon class="st1" points="258.3,108.8 258.3,189.7 245.9,206.4 178.1,206.4 204.2,108.8 "/>
<polygon class="st1" points="245.9,206.4 258.3,223 258.3,324.1 245.9,340.7 142.1,340.7 178.1,206.4 "/>
<polygon class="st0" points="142.1,206.4 245.9,206.4 258.3,223 129.7,223 "/>
</svg>
