<?xml version="1.0" encoding="utf-8"?>
<!-- Generator: Adobe Illustrator 25.0.1, SVG Export Plug-In . SVG Version: 6.00 Build 0)  -->
<svg version="1.1" id="Layer_1" xmlns="http://www.w3.org/2000/svg" xmlns:xlink="http://www.w3.org/1999/xlink" x="0px" y="0px"
	 viewBox="0 0 666.36 650.23" style="enable-background:new 0 0 666.36 650.23;" xml:space="preserve">
<style type="text/css">
	.st0{fill:#CDCFCE;}
	.st1{fill:#AFB2B2;}
</style>
<path class="st0" d="M498.18,336.67l-3.85,8.66l-0.28,20.64l-8.29,88.48l-8.42,25.45l6.41,32.26l-11.28,31.52l-1.85,42.3l2.24,11
	l-1.87,13.04v20.51l-5.73,5.73h-31.13v-10.62l11.91-15.63l0.74-25.24l-13.23-42.39l-8.54-35.99l9.71-27.72l-4.33-21.76l-10.61-85.07
	l12.12-29.88l8.63-54.56l7.36-63.96l-5.83-27.99l-4.65,15.08l-8.85,5.44l-2.23,29.55L397.3,308.4l-2.59,34.74v25.87l-6.66,1.11
	l-1.77-18.5l-5.83,25.48h-6.47l2.36-24.69l-8.06,24.81l-7.39-1.96l6.87-26.21l-10.77,20.6l-6.35-3.06l11.71-31.29l-9.91,10.07
	l-4.8-5.67l29.24-35.81l11.48-39.62l-0.51-35.23l17.36-21.97l-4.07-15.4l5.43-19.57l-1.19-42.43l9.74-13.63l23.21-5.7h7.36
	l28.9-26.43V70.26l-9.03-9.03V45.64h3.14l1.52,1.53V28.21l14.29-14.29h27.35l14.28,14.29v18.96l1.53-1.53h3.14v15.59l-9.03,9.03
	v13.65l28.9,26.43h7.36l23.21,5.7l9.74,13.63l-1.19,42.43l5.43,19.57l-4.08,15.4l17.37,21.97l-0.51,35.23l11.47,39.62l29.25,35.81
	l-4.8,5.67l-9.91-10.07l11.71,31.29l-6.36,3.06l-10.76-20.6l6.87,26.21l-7.39,1.96l-8.06-24.81l2.36,24.69h-6.48l-5.82-25.48
	l-1.77,18.5l-6.66-1.11v-25.87l-2.59-34.74l-29.03-62.88l-2.23-29.55l-8.85-5.44l-4.66-15.08l-5.82,27.99l7.36,63.96l8.63,54.56
	l12.12,29.88l-10.61,85.07l-4.33,21.76l9.71,27.72l-8.54,35.99l-13.23,42.39l0.73,25.24l11.92,15.63v10.62h-31.13l-5.73-5.73v-20.51
	l-1.87-13.04l2.24-11l-1.85-42.3l-11.28-31.52l6.41-32.26l-8.42-25.45l-8.29-88.48l-0.28-20.64L498.18,336.67z"/>
<path class="st1" d="M531.78,131.09l38.91,9.82l15.95,27.32l0.71-34.08l-7.34-14.1l-19.8-5.21L531.78,131.09z"/>
<path class="st1" d="M572.76,151.53l10.16,19.2l-1.39,19.3l-5.77,0.64l-15.8-21.85l1.16-12.63L572.76,151.53z M558.83,175.64
	l13.95,17.55l3.81,20.26l-4.89,2.59l-10.98-8.16l-5.35-19.74L558.83,175.64z M585.8,173.31l6.68,17.77l-5.14,20.84l-3.04-17.43
	L585.8,173.31z M554.3,176.55l-20.29,0.31l-25.79,51.68l20.92,13.97l4.3,29.73l12.4-33.67l-1.64-18.16L554.3,176.55z"/>
<path class="st1" d="M532.38,135.06l31.09,9.01l5.37,5.26l-11.54,4.65l-1.71,18.88l-21.19,0.52l5.13-9.67L532.38,135.06z
	 M602.63,226.26l-7.73,30.34l-4.49-14.15l-17.23-19.64l1.12,22.61l15.74,35.13l5.3,10.77l7.44-8.91l1.07,6.4l6.12-4.3l-6.38-19.89
	l2.69-28.41L602.63,226.26z M540.05,266.15l12.04,18.53v41.37l-10.15,12.94l-27.91,5.84l-12.94-12.69v-27.15l14.04-21.06l20.1-6.7
	L540.05,266.15z M527.71,346.83l-19.77,3.92l3.94,53.14l2.86,39.76l8.96,25.79l-1.08-24.36l0.08-43.69L527.71,346.83z
	 M546.62,346.83h-10.69l9.9,34.5v43.7l14.76,34.02l1.71-43.7l6.88-42.98l-12.89-40.47l-2.15,24.36L546.62,346.83z"/>
<path class="st1" d="M531.77,346.83l10.19,34.86v43.45l-17.43,48.71l6.45-33.19l-0.48-52.76l-1.79-13.14L531.77,346.83z
	 M546.22,451.85l-7.4,15.02l3.7,46.99l11.97,12.41h7.18l4.56-18.61L546.22,451.85z M534.09,459.36l3.1,6.53l1.63,51.73l-6.41,11.75
	l-6.48,3.1l-2.99-9.79l-5.5-10.12l4.57-25.89L534.09,459.36z"/>
<g>
	<path class="st1" d="M479.21,84.96l-31.83,30.85l23.07,13.88l-7.88,35.38l26.5,55.34l2.67-16.77l-2.32-114.82l5.76-13.08
		L479.21,84.96z M517.16,84.96l31.83,30.85l-23.07,13.88l7.88,35.38l-26.5,55.34l-2.67-16.77l2.31-114.82l-5.75-13.08L517.16,84.96z
		"/>
	<path class="st1" d="M464.58,131.09l-38.9,9.82l-15.95,27.32l-0.71-34.08l7.34-14.1l19.8-5.21L464.58,131.09z"/>
	<path class="st1" d="M423.61,151.53l-10.17,19.2l1.4,19.3l5.77,0.64l15.8-21.85l-1.17-12.63L423.61,151.53z M437.54,175.64
		l-13.95,17.55l-3.81,20.26l4.89,2.59l10.97-8.16l5.36-19.74L437.54,175.64z M410.57,173.31l-6.68,17.77l5.14,20.84l3.03-17.43
		L410.57,173.31z M442.06,176.55l20.3,0.31l25.79,51.68l-20.92,13.97l-4.3,29.73l-12.4-33.67l1.64-18.16L442.06,176.55z"/>
	<path class="st1" d="M463.99,135.06l-31.09,9.01l-5.37,5.26l11.53,4.65l1.72,18.88l21.19,0.52l-5.13-9.67L463.99,135.06z
		 M393.74,226.26l7.73,30.34l4.48-14.15l17.24-19.64l-1.12,22.61l-15.75,35.13l-5.29,10.77l-7.44-8.91l-1.08,6.4l-6.11-4.3
		l6.38-19.89l-2.7-28.41L393.74,226.26z M456.32,266.15l-12.04,18.53v41.37l10.15,12.94l27.91,5.84l12.94-12.69v-27.15l-14.05-21.06
		l-20.09-6.7L456.32,266.15z M468.66,346.83l19.77,3.92l-3.94,53.14l-2.86,39.76l-8.96,25.79l1.08-24.36l-0.08-43.69L468.66,346.83z
		 M449.75,346.83h10.68l-9.89,34.5v43.7l-14.76,34.02l-1.72-43.7l-6.87-42.98l12.89-40.47l2.15,24.36L449.75,346.83z"/>
	<path class="st1" d="M464.6,346.83l-10.19,34.86v43.45l17.43,48.71l-6.45-33.19l0.48-52.76l1.79-13.14L464.6,346.83z
		 M450.15,451.85l7.4,15.02l-3.7,46.99l-11.97,12.41h-7.18l-4.57-18.61L450.15,451.85z M462.28,459.36l-3.1,6.53l-1.63,51.73
		l6.4,11.75l6.49,3.1l2.99-9.79l5.5-10.12l-4.57-25.89L462.28,459.36z"/>
</g>
<g>
	<path class="st0" d="M313.93,345.42l4.8-5.67l-29.25-35.81l-11.47-39.62l0.51-35.24l-17.37-21.97l4.08-15.4l-5.43-19.57l1.19-42.42
		l-9.74-13.64l-23.21-5.69h-7.36l-28.9-26.43V70.31l9.03-9.03V45.69h-3.14l-1.53,1.52V28.25l-14.28-14.28h-27.35l-4.76,4.76
		l-9.53,9.52v18.96l-1.52-1.52h-3.14v15.59l9.03,9.03v13.65l-28.9,26.43h-7.36l-23.21,5.69l-3.25,4.55l-6.49,9.09l1.19,42.42
		l-5.43,19.57l4.07,15.4l-17.36,21.97l0.51,35.24l-11.48,39.62l-29.24,35.81l4.8,5.67l9.91-10.08l-11.71,31.29l6.35,3.07l10.77-20.6
		l-6.87,26.21l7.39,1.96l8.06-24.81l-2.36,24.69h6.47l3.78-16.52l2.05-8.97l1.77,18.51l6.66-1.11v-25.85l2.59-34.77l29.03-62.88
		l2.23-29.55l8.85-5.43l4.65-15.08l5.83,27.99l-2.97,25.84l-4.39,38.11l-8.64,54.57l-12.11,29.87l10.61,85.07l4.33,21.76
		l-9.71,27.73l8.54,35.99l13.23,42.38v0.01l-0.74,25.24l-11.91,15.63v10.62h31.13l5.73-5.73v-20.47l1.87-13.08l-2.24-11.01
		l1.85-42.29l11.28-31.52l-6.41-32.27l8.42-25.45l8.29-88.47v-0.04l0.01-0.03l0.27-20.57l3.85-8.66l3.86,8.66l0.28,20.64l8.29,88.47
		l8.42,25.45l-6.41,32.27l11.28,31.52l1.85,42.29l-2.24,11.01l1.87,13.04v20.51l5.73,5.73h31.13v-10.62l-11.92-15.63l-0.73-25.24
		l13.23-42.39l8.54-35.99l-9.71-27.73l4.33-21.76l10.61-85.07l-12.12-29.87l-8.63-54.57l-7.36-63.95l5.82-27.99l4.66,15.08
		l8.85,5.43l2.23,29.55l29.03,62.88l2.59,34.74v25.88l6.66,1.11l1.77-18.51l5.82,25.49h6.48l-2.36-24.7l8.06,24.82l7.39-1.96
		l-6.87-26.21l10.76,20.6l6.36-3.07l-11.71-31.29L313.93,345.42z"/>
	<path class="st1" d="M226.1,142.06l-35.71-17.57l-18.02,17.66v39.89h36.41L226.1,142.06z"/>
	<path class="st1" d="M195.29,123.16l35.42,16.23l-4.77,12.3l29.97,29.03l1.37-49.1l-9.18-12.85l-22.16-5.45L195.29,123.16z
		 M231.76,163.44l-1.55,27.44l12.69,24.14l10.97,9.44l2.85-37.94L231.76,163.44z M104.61,163.44l1.55,27.44l-12.69,24.14
		l-10.98,9.44l-2.84-37.94L104.61,163.44z"/>
	<path class="st1" d="M260.01,211.01l-3.15,22.6l-16.14-15.18l1.93,25.63l25.18,54.56l16.79-3.55l-10.01-34.55l0.45-30.47
		L260.01,211.01z M76.36,211.01l3.15,22.6l16.14-15.18l-1.93,25.63l-25.19,54.56l-16.78-3.55l10-34.55l-0.44-30.47L76.36,211.01z
		 M171.51,185.04v15.35l23.18,16v-30.88L171.51,185.04z M171.51,205.04l22.73,15.45v11.9l-22.73-2.41V205.04z M171.51,234.14
		l23.18,2.04v20.28h-18.35l-4.83-4.09V234.14z M172.81,260.81h22.43l-11.22,52.16l-5.58,11l-5.05-11L172.81,260.81z M220.46,180.09
		l-15.26,7.89l12.66,8.18L220.46,180.09z M214.55,197.91l-13.83-8.56l-0.48,15.44L214.55,197.91z M200.24,207.39v13.12l17.66-11.72
		l-6.07-7.54L200.24,207.39z M200.24,224.02v11.96l15.43-11.54l2.23-10.46h-3.35L200.24,224.02z M216.51,226.44l-15.72,12.93v12.28
		l15.72-13.21V226.44z M216.51,243.14l-17.27,15.18l0.62,29.89l6.88,4.18l3.63-8.5l9.21-8.61L216.51,243.14z M211.82,575.42
		l7.82-63.21l-0.86-42.73l12.75,38.68L211.82,575.42z M124.55,575.42l-7.82-63.21l0.86-42.73l-12.75,38.68L124.55,575.42z
		 M190.32,88.37l24.23,22.86l-20.18,7.12l-4.05-5.98V88.37z M188.34,79.47l-16.62,9.6v31.5l14.08-7.61V88.7L188.34,79.47z
		 M110.27,142.06l35.71-17.57L164,142.15v39.89h-36.41L110.27,142.06z"/>
	<path class="st1" d="M141.08,123.16l-35.42,16.23l4.77,12.3l-29.97,29.03l-1.37-49.1l9.18-12.85l22.16-5.45L141.08,123.16z
		 M164.86,185.04v15.35l-23.18,16v-30.88L164.86,185.04z M164.86,205.04l-22.73,15.45v11.9l22.73-2.41V205.04z M164.86,234.14
		l-23.18,2.04v20.28h18.34l4.84-4.09L164.86,234.14z M163.56,260.81h-22.43l11.21,52.16l5.59,11l5.05-11L163.56,260.81z
		 M115.91,180.09l15.25,7.89l-12.65,8.18L115.91,180.09z M121.82,197.91l13.83-8.56l0.48,15.44L121.82,197.91z M136.13,207.39v13.12
		l-17.66-11.72l6.07-7.54L136.13,207.39z M136.13,224.02v11.96l-15.43-11.54l-2.23-10.46h3.35L136.13,224.02z M119.86,226.44
		l15.72,12.93v12.28l-15.72-13.21V226.44z M119.86,243.14l17.27,15.18l-0.62,29.89l-6.88,4.18l-3.63-8.5l-9.21-8.61L119.86,243.14z
		 M146.05,88.37l-24.23,22.86l20.18,7.12l4.05-5.98V88.37z M148.03,79.47l16.62,9.6v31.5l-14.08-7.61V88.7L148.03,79.47z"/>
</g>
<g>
	<path class="st1" d="M209.19,316.68l-6.62,46.08l-8.13,38.22l11.92,56.76h11.92v-11.8l11.07-28.66v-56.2L209.19,316.68z
		 M212.87,288.01v21.36l18.44,31.16l-6.8-39.59L212.87,288.01z M205.98,296.86l-21.4,87.12l-3.52,34.28l3.25,25.46l3.52-35.29
		l10.56-38.64l11.65-72.93H205.98z"/>
	<path class="st1" d="M220.13,334.38l12.47,26.42v55.35l-10.52,30.63v13.77l11.1-14.05l10.3-73.06l-26.62-52.03L220.13,334.38z
		 M191.19,406.32l-1.89,9.27l-3.8,39.34l5.69,16.02h8.4l2.98-15.73 M188.12,315.29l-9.68,45.72l-1.18-22.63L188.12,315.29z
		 M186.47,338.81l4.25,10.6l-11.42,44.61l-0.18-24.54L186.47,338.81z M203.54,293.77l-16.07,41.03l4.15,8.24L203.54,293.77z"/>
</g>
<g>
	<path class="st1" d="M127.18,316.68l6.62,46.08l8.12,38.22L130,457.74h-11.92v-11.8l-11.06-28.66v-56.2L127.18,316.68z
		 M123.5,288.01v21.36l-18.44,31.16l6.79-39.59L123.5,288.01z M130.39,296.86l21.4,87.12l3.52,34.28l-3.25,25.46l-3.52-35.29
		l-10.57-38.64l-11.65-72.93H130.39z"/>
	<path class="st1" d="M116.23,334.38l-12.46,26.42v55.35l10.52,30.63v13.77l-11.1-14.05l-10.3-73.06l26.62-52.03L116.23,334.38z
		 M145.18,406.32l1.89,9.27l3.79,39.34l-5.68,16.02h-8.4l-2.98-15.73 M148.25,315.29l9.68,45.72l1.17-22.63L148.25,315.29z
		 M149.89,338.81l-4.24,10.6l11.42,44.61l0.18-24.54L149.89,338.81z M132.83,293.77l16.07,41.03l-4.15,8.24L132.83,293.77z"/>
</g>
</svg>
