<svg version="1.1" id="Layer_1" xmlns="http://www.w3.org/2000/svg" x="0" y="0" viewBox="0 0 386.3 387.9" xml:space="preserve"><style>.st0{fill:#a51f1d}</style><path class="st0" d="M325.4 297.3l18.7 7.2-29 75.7-63.1-36.4-8.2-4.7-67.9-39.2-7.3-4.3-125.2-72.3-15.6-9 6.8-12.2.3-.2L65 184.5l.2-.1 101.3-58.5 8-4.6 69.3-40 8.2-4.7 63.1-36.5 29 75.8-18.7 7.1-20.6-53.8L268.7 90l-17.6 10.2-60.6 34.9-17.8 10.3-112.1 64.8 112.1 64.7 17.8 10.3 60.6 35 17.6 10.1 36.1 20.9z"/><path class="st0" d="M290 210.2c0 41.3-7.1 81.7-21.3 120.1-1 2.7-2 5.4-3.1 8.1l-3.7 9.3-10-3.9-8.1-4.7 3.2-8c1.4-3.6 2.8-7.2 4.1-10.9C263.6 285 270 248 270 210.2s-6.3-74.8-18.9-110c-1.3-3.6-2.7-7.3-4.1-10.9l-3.2-8 8.1-4.7 9.9-3.9 3.7 9.3c1.1 2.7 2.1 5.4 3.1 8.1 14.2 38.4 21.4 78.7 21.4 120.1zM201.5 210.2c0 3-.1 6-.2 9-.3 9.2-1.1 18.3-2.4 27.4-.8 6-1.9 11.9-3.1 17.8-1.5 7-3.2 14-5.3 20.8-.6 2.1-1.3 4.2-2 6.2v8.4h-12.7l-7.3-4.2v-7.4l.5-1.5c1.3-3.9 2.5-7.8 3.6-11.8 5.8-21 8.8-42.7 8.8-64.7s-3-43.8-8.8-64.7c-1.1-4-2.3-7.9-3.6-11.8l-2.6-7.7 8-4.6 10.4-3.5 3.2 9.5c.9 2.6 1.7 5.2 2.5 7.8 2.1 6.9 3.8 13.8 5.3 20.8 1.3 5.9 2.3 11.8 3.1 17.8 1.3 9 2.1 18.2 2.4 27.4.1 3 .2 6 .2 9z"/><path transform="rotate(-16.104 212.79 160.435)" class="st0" d="M177.9 151.4h69.9v18h-69.9z"/><path class="st0" d="M182.5 201.2h47.6v18h-47.6z"/><path transform="rotate(-73.896 210.704 259.276)" class="st0" d="M201.7 226.5h18V292h-18z"/><g><path class="st0" d="M157.6 18.7L65 184.5l-21.6 38.8-15.6-9 6.8-12.2L141.9 9.9z"/></g><g><path class="st0" d="M188.2 35.8l-30.6-17.1-15.7-8.8L115 58.2l15.7 8.8 49.8 27.7 15.2-27.2-7.5-31.7zm-14.7 34.4l-34.1-19 9.4-16.8 23.6 13.2 4 17.2-2.9 5.4z"/></g></svg>