<?xml version="1.0" encoding="utf-8"?>
<!-- Generator: Adobe Illustrator 24.3.0, SVG Export Plug-In . SVG Version: 6.00 Build 0)  -->
<svg version="1.1" id="Layer_1" xmlns="http://www.w3.org/2000/svg" xmlns:xlink="http://www.w3.org/1999/xlink" x="0px" y="0px"
	 viewBox="0 0 386.3 387.9" style="enable-background:new 0 0 386.3 387.9;" xml:space="preserve">
<style type="text/css">
	.st0{fill:#A51F1D;}
</style>
<g>
	<g>
		<polygon class="st0" points="325.4,297.3 344.1,304.5 315.1,380.2 252,343.8 243.8,339.1 175.9,299.9 175.9,299.9 168.6,295.6 
			43.4,223.3 27.8,214.3 34.6,202.1 34.9,201.9 65,184.5 65.2,184.4 166.5,125.9 174.5,121.3 174.5,121.3 243.8,81.3 252,76.6 
			315.1,40.1 344.1,115.9 325.4,123 304.8,69.2 268.7,90 251.1,100.2 190.5,135.1 172.7,145.4 60.6,210.2 172.7,274.9 190.5,285.2 
			251.1,320.2 268.7,330.3 304.8,351.2 		"/>
	</g>
	<g>
		<path class="st0" d="M290,210.2c0,41.3-7.1,81.7-21.3,120.1c-1,2.7-2,5.4-3.1,8.1l-3.7,9.3l-10-3.9l-8.1-4.7l3.2-8
			c1.4-3.6,2.8-7.2,4.1-10.9c12.5-35.2,18.9-72.2,18.9-110c0-37.8-6.3-74.8-18.9-110c-1.3-3.6-2.7-7.3-4.1-10.9l-3.2-8l8.1-4.7
			l9.9-3.9l3.7,9.3c1.1,2.7,2.1,5.4,3.1,8.1C282.8,128.5,290,168.8,290,210.2z"/>
	</g>
	<g>
		<path class="st0" d="M201.5,210.2c0,3-0.1,6-0.2,9c-0.3,9.2-1.1,18.3-2.4,27.4c-0.8,6-1.9,11.9-3.1,17.8c-1.5,7-3.2,14-5.3,20.8
			c-0.6,2.1-1.3,4.2-2,6.2v8.4l-12.7,0h0l-7.3-4.2v-7.4l0.5-1.5c1.3-3.9,2.5-7.8,3.6-11.8c5.8-21,8.8-42.7,8.8-64.7
			c0-22-3-43.8-8.8-64.7c-1.1-4-2.3-7.9-3.6-11.8l-2.6-7.7l8-4.6l0,0l10.4-3.5l3.2,9.5c0.9,2.6,1.7,5.2,2.5,7.8
			c2.1,6.9,3.8,13.8,5.3,20.8c1.3,5.9,2.3,11.8,3.1,17.8c1.3,9,2.1,18.2,2.4,27.4C201.4,204.2,201.5,207.2,201.5,210.2z"/>
	</g>
	<g>
		<g>
			
				<rect x="177.9" y="151.4" transform="matrix(0.9608 -0.2774 0.2774 0.9608 -36.154 65.3238)" class="st0" width="69.9" height="18"/>
		</g>
		<g>
			<rect x="182.5" y="201.2" class="st0" width="47.6" height="18"/>
		</g>
		<g>
			
				<rect x="201.7" y="226.5" transform="matrix(0.2774 -0.9608 0.9608 0.2774 -96.849 389.8084)" class="st0" width="18" height="65.5"/>
		</g>
	</g>
	<g>
		<polygon class="st0" points="157.6,18.7 65,184.5 43.4,223.3 27.8,214.3 34.6,202.1 141.9,9.9 		"/>
	</g>
	<g>
		<path class="st0" d="M188.2,35.8l-30.6-17.1l-15.7-8.8L115,58.2l15.7,8.8l49.8,27.7l15.2-27.2L188.2,35.8z M173.5,70.2l-34.1-19
			l9.4-16.8l23.6,13.2l4,17.2L173.5,70.2z"/>
	</g>
</g>
</svg>
