<?xml version="1.0" encoding="utf-8"?>
<!-- Generator: Adobe Illustrator 24.3.0, SVG Export Plug-In . SVG Version: 6.00 Build 0)  -->
<svg version="1.1" id="Layer_1" xmlns="http://www.w3.org/2000/svg" xmlns:xlink="http://www.w3.org/1999/xlink" x="0px" y="0px"
	 viewBox="0 0 386.3 387.9" style="enable-background:new 0 0 386.3 387.9;" xml:space="preserve">
<style type="text/css">
	.st0{fill:#E31418;}
	.st1{fill:#A51E1D;}
</style>
<polygon class="st0" points="362.5,178.5 386.9,212.2 386.3,387.9 369,387.5 304.4,387.5 270.9,250.9 285.1,249.1 322.1,178.5 "/>
<g>
	<g>
		<g>
			<g>
				<g>
					<polygon class="st0" points="345.7,267.9 345.6,285.1 313.2,380.1 310.5,387.9 76.1,388.4 73.4,380.6 40.8,267.9 					"/>
					<polygon class="st0" points="77.7,267.9 77.7,387.9 -0.1,387.9 -0.1,320.7 40.8,267.9 					"/>
					<polyline class="st1" points="81.8,387.9 81.8,328 52.2,387.9 					"/>
				</g>
				<polygon class="st1" points="77.7,267.9 137.9,295.5 115.9,267.9 				"/>
				<polygon class="st0" points="193.4,238.6 193.4,267.9 115.9,267.9 124.4,258.4 142,238.6 				"/>
				<polygon class="st0" points="304.4,266.7 248.9,283.2 193.4,267.9 193.4,238.6 244.8,238.6 				"/>
				<polygon class="st1" points="285.1,249.1 267,312.1 270.9,250.9 				"/>
			</g>
			<polygon class="st1" points="262.9,247.1 193.2,291.1 130.4,251.7 142,238.6 244.8,238.6 			"/>
			<path class="st0" d="M261.6,230.4v-63.3c0-24.4-13-46.9-34.1-59l0,0c-21.1-12.2-47.3-12.2-68.4,0l0,0
				c-21.1,12.2-34.1,34.6-34.1,59v63.3l68.3,39.5L261.6,230.4z"/>
		</g>
	</g>
	<polygon class="st1" points="193.4,358 193.4,387.9 182.1,387.9 	"/>
	<polygon class="st1" points="193.4,358 193.4,387.9 204.8,387.9 	"/>
</g>
<polyline class="st1" points="261.6,230.4 243.8,211.7 261.6,167.1 "/>
<polyline class="st1" points="125.1,230.4 142.9,211.7 125.1,167.1 "/>
<polygon class="st1" points="304.4,334.2 369,387.5 304.4,387.5 "/>
<polygon class="st0" points="290.6,117 259,82.4 246.1,39.7 258.7,34.2 270.6,60.7 257.7,15.8 293.7,0 324.3,46.9 331.9,98.9 "/>
<polygon class="st0" points="386.9,212.2 386.9,173.2 331.9,98.9 290.6,117 313.6,228.6 342.7,211.5 "/>
</svg>
