<svg version="1.1" id="Layer_1" xmlns="http://www.w3.org/2000/svg" x="0" y="0" viewBox="0 0 386.3 387.9" xml:space="preserve"><style>.st0{fill:#e31418}.st1{fill:#a51e1d}</style><path class="st0" d="M362.5 178.5l24.4 33.7-.6 175.7-17.3-.4h-64.6l-33.5-136.6 14.2-1.8 37-70.6z"/><path class="st0" d="M345.7 267.9l-.1 17.2-32.4 95-2.7 7.8-234.4.5-2.7-7.8-32.6-112.7z"/><path class="st0" d="M77.7 267.9v120H-.1v-67.2l40.9-52.8z"/><path class="st1" d="M81.8 387.9V328l-29.6 59.9M77.7 267.9l60.2 27.6-22-27.6z"/><path class="st0" d="M193.4 238.6v29.3h-77.5l8.5-9.5 17.6-19.8z"/><path class="st0" d="M304.4 266.7l-55.5 16.5-55.5-15.3v-29.3h51.4z"/><path class="st1" d="M285.1 249.1l-18.1 63 3.9-61.2zM262.9 247.1l-69.7 44-62.8-39.4 11.6-13.1h102.8z"/><path class="st0" d="M261.6 230.4v-63.3c0-24.4-13-46.9-34.1-59-21.1-12.2-47.3-12.2-68.4 0-21.1 12.2-34.1 34.6-34.1 59v63.3l68.3 39.5 68.3-39.5z"/><path class="st1" d="M193.4 358v29.9h-11.3zM193.4 358v29.9h11.4zM261.6 230.4l-17.8-18.7 17.8-44.6M125.1 230.4l17.8-18.7-17.8-44.6M304.4 334.2l64.6 53.3h-64.6z"/><path class="st0" d="M290.6 117L259 82.4l-12.9-42.7 12.6-5.5 11.9 26.5-12.9-44.9 36-15.8 30.6 46.9 7.6 52z"/><path class="st0" d="M386.9 212.2v-39l-55-74.3-41.3 18.1 23 111.6 29.1-17.1z"/></svg>