<svg version="1.1" id="Layer_1" xmlns="http://www.w3.org/2000/svg" x="0" y="0" viewBox="0 0 386.3 387.9" xml:space="preserve"><style>.st0{fill:#e31418}.st1{fill:#a51e1d}</style><path class="st0" d="M310.5 387.9l-234.4.5-2.7-7.8-32.6-112.7h152.6v120z"/><path class="st0" d="M77.7 267.9v120H-.1v-67.2l40.9-52.8z"/><path class="st1" d="M81.8 387.9V328l-29.6 59.9M77.7 267.9l60.2 27.6-22-27.6z"/><path class="st0" d="M75.9 387.9l234.4.5 2.7-7.8 32.6-112.7H193v120z"/><path class="st0" d="M345.6 267.9l40.9 52.8v67.2h-77.8v-120z"/><path class="st1" d="M334.2 387.9L304.6 328v59.9M270.5 267.9l-22 27.6 60.2-27.6z"/><path class="st0" d="M193.4 238.6v29.3h-77.5l8.5-9.5 17.6-19.8zM244.8 238.6l17.6 19.8 8.5 9.5h-77.5v-29.3z"/><path class="st1" d="M256.1 251.4l-62.9 39.7-62.8-39.4 11.6-13.1h102.8z"/><path class="st0" d="M261.6 230.4v-63.3c0-24.4-13-46.9-34.1-59-21.1-12.2-47.3-12.2-68.4 0-21.1 12.2-34.1 34.6-34.1 59v63.3l68.3 39.5 68.3-39.5z"/><path class="st1" d="M193.4 358v29.9h-11.3zM193.4 358v29.9h11.4zM261.6 230.4l-17.8-18.7 17.8-44.6M125.1 230.4l17.8-18.7-17.8-44.6"/></svg>